<svg width="100" height="100" viewBox="0 0 100 100" fill="none" xmlns="http://www.w3.org/2000/svg">
<path d="M0 64.5989V35.4011H9.22715C11.7585 35.4011 14.0342 35.9893 16.0541 37.1658C18.0739 38.3289 19.6479 39.9799 20.7758 42.119C21.9169 44.2447 22.494 46.631 22.5072 49.2781V50.6217C22.5072 53.2955 21.9497 55.6952 20.8349 57.8209C19.7331 59.9332 18.1723 61.5909 16.1524 62.7941C14.1457 63.984 11.9028 64.5856 9.42389 64.5989H0ZM6.9056 40.8356V59.1845H9.30584C11.2864 59.1845 12.8078 58.4693 13.8702 57.0388C14.9326 55.5949 15.4638 53.4559 15.4638 50.6217V49.3583C15.4638 46.5374 14.9326 44.4118 13.8702 42.9813C12.8078 41.5508 11.2601 40.8356 9.22715 40.8356H6.9056Z" fill="#425466"/>
<path d="M40.8237 56.8382C40.8237 55.8088 40.463 55.0067 39.7417 54.4318C39.0334 53.857 37.7808 53.262 35.9839 52.6471C34.187 52.0321 32.718 51.4372 31.5769 50.8623C27.8651 49.004 26.0091 46.4505 26.0091 43.2019C26.0091 41.5842 26.4682 40.1604 27.3863 38.9305C28.3176 37.6872 29.6292 36.7246 31.3211 36.0428C33.0131 35.3476 34.9149 35 37.0266 35C39.0858 35 40.9287 35.3743 42.555 36.123C44.1946 36.8717 45.4668 37.9412 46.3718 39.3316C47.2768 40.7086 47.7293 42.2861 47.7293 44.0642H40.8434C40.8434 42.8743 40.4827 41.9519 39.7613 41.2968C39.0531 40.6417 38.089 40.3142 36.8692 40.3142C35.6363 40.3142 34.6592 40.5949 33.9378 41.1564C33.2295 41.7045 32.8754 42.4064 32.8754 43.262C32.8754 44.0107 33.2689 44.6925 34.0558 45.3075C34.8428 45.9091 36.2265 46.5374 38.2071 47.1925C40.1876 47.8342 41.814 48.5294 43.0862 49.2781C46.1816 51.0963 47.7293 53.6029 47.7293 56.7981C47.7293 59.3516 46.785 61.357 44.8963 62.8142C43.0075 64.2714 40.4171 65 37.125 65C34.8035 65 32.6983 64.5789 30.8096 63.7366C28.934 62.881 27.5175 61.7179 26.56 60.2473C25.6157 58.7634 25.1435 57.0588 25.1435 55.1337H32.0688C32.0688 56.6979 32.4622 57.8543 33.2492 58.6029C34.0493 59.3382 35.3412 59.7059 37.125 59.7059C38.2661 59.7059 39.1645 59.4586 39.8203 58.9639C40.4893 58.4559 40.8237 57.7473 40.8237 56.8382Z" fill="#425466"/>
<path d="M66.0459 56.8382C66.0459 55.8088 65.6852 55.0067 64.9638 54.4318C64.2556 53.857 63.003 53.262 61.2061 52.6471C59.4092 52.0321 57.9402 51.4372 56.7991 50.8623C53.0872 49.004 51.2313 46.4505 51.2313 43.2019C51.2313 41.5842 51.6904 40.1604 52.6085 38.9305C53.5397 37.6872 54.8513 36.7246 56.5433 36.0428C58.2353 35.3476 60.1371 35 62.2488 35C64.308 35 66.1508 35.3743 67.7772 36.123C69.4167 36.8717 70.689 37.9412 71.594 39.3316C72.499 40.7086 72.9515 42.2861 72.9515 44.0642H66.0656C66.0656 42.8743 65.7049 41.9519 64.9835 41.2968C64.2752 40.6417 63.3112 40.3142 62.0914 40.3142C60.8585 40.3142 59.8814 40.5949 59.16 41.1564C58.4517 41.7045 58.0976 42.4064 58.0976 43.262C58.0976 44.0107 58.4911 44.6925 59.278 45.3075C60.065 45.9091 61.4487 46.5374 63.4292 47.1925C65.4098 47.8342 67.0362 48.5294 68.3084 49.2781C71.4038 51.0963 72.9515 53.6029 72.9515 56.7981C72.9515 59.3516 72.0072 61.357 70.1184 62.8142C68.2297 64.2714 65.6393 65 62.3472 65C60.0256 65 57.9205 64.5789 56.0318 63.7366C54.1562 62.881 52.7397 61.7179 51.7822 60.2473C50.8378 58.7634 50.3657 57.0588 50.3657 55.1337H57.2909C57.2909 56.6979 57.6844 57.8543 58.4714 58.6029C59.2715 59.3382 60.5634 59.7059 62.3472 59.7059C63.4883 59.7059 64.3867 59.4586 65.0425 58.9639C65.7114 58.4559 66.0459 57.7473 66.0459 56.8382Z" fill="#425466"/>
<path d="M76.4928 64.5989V35.4011H85.72C88.2514 35.4011 90.527 35.9893 92.5469 37.1658C94.5668 38.3289 96.1407 39.9799 97.2687 42.119C98.4098 44.2447 98.9869 46.631 99 49.2781V50.6217C99 53.2955 98.4426 55.6952 97.3277 57.8209C96.2259 59.9332 94.6651 61.5909 92.6453 62.7941C90.6385 63.984 88.3957 64.5856 85.9167 64.5989H76.4928ZM83.3984 40.8356V59.1845H85.7987C87.7792 59.1845 89.3007 58.4693 90.3631 57.0388C91.4255 55.5949 91.9567 53.4559 91.9567 50.6217V49.3583C91.9567 46.5374 91.4255 44.4118 90.3631 42.9813C89.3007 41.5508 87.753 40.8356 85.72 40.8356H83.3984Z" fill="#425466"/>
<rect x="53" y="72" width="47" height="28" fill="#0091E9"/>
<rect width="47" height="28" fill="#0091E9"/>
<rect y="72" width="47" height="19" fill="#425466"/>
<rect x="53" y="9" width="47" height="19" fill="#425466"/>
</svg>
